<?xml version="1.0" standalone="no"?>
<svg version="1.0" xmlns="http://www.w3.org/2000/svg"
 width="356.000000pt" height="450.000000pt" viewBox="0 0 356.000000 450.000000"
 preserveAspectRatio="xMidYMid meet">
<g transform="translate(0.000000,450.000000) scale(0.100000,-0.100000)"
fill="#000000" stroke="none">
<path d="M1940 4229 c-399 -3 -796 -7 -882 -8 l-158 -1 0 -41 0 -42 633 7
c347 3 860 9 1140 12 l507 7 0 -334 c0 -676 11 -1323 22 -1346 8 -17 8 -30 0
-48 -19 -40 -15 -46 28 -43 30 2 40 7 40 20 0 9 -4 20 -10 23 -13 8 -13 52 1
57 8 3 9 246 3 862 -6 721 -9 860 -21 872 -16 16 15 15 -1303 3z"/>
<path d="M2133 3504 c-3 -8 -4 -201 -1 -427 3 -227 3 -416 1 -422 -2 -6 -132
-9 -370 -8 -203 2 -379 0 -392 -3 l-24 -5 7 -815 8 -814 -235 0 -235 0 -6 242
c-4 134 -8 504 -9 823 l-2 580 -30 0 -30 0 -3 -540 c-2 -297 0 -685 4 -863 l6
-323 302 3 301 3 3 435 2 435 358 -3 c196 -2 372 0 391 3 l34 6 -7 815 -7 814
240 0 241 0 3 -657 c1 -362 2 -730 2 -818 l0 -160 34 0 35 0 -3 844 c-1 464
-5 850 -8 857 -4 11 -60 14 -304 14 -263 0 -300 -2 -306 -16z m-23 -1279 l0
-325 -324 0 -324 0 -3 28 c-2 15 -3 161 -1 325 l3 297 324 0 325 0 0 -325z"/>
<path d="M1530 2247 c0 -123 3 -226 6 -229 3 -3 16 5 30 19 24 24 24 26 24
203 l0 180 173 0 c171 1 172 1 190 25 l18 25 -221 0 -220 0 0 -223z"/>
<path d="M1997 2420 c-27 -32 -28 -37 -25 -119 1 -47 2 -128 0 -178 l-2 -93
-168 0 c-167 0 -169 0 -192 -25 l-23 -25 217 0 c166 0 218 3 222 13 2 7 3 113
2 237 l-3 224 -28 -34z"/>
<path d="M260 2066 c0 -8 5 -18 10 -21 14 -9 13 -55 -1 -55 -15 0 -3 -1725 13
-1753 9 -18 43 -18 941 -12 513 3 1050 8 1195 11 l262 6 0 40 0 39 -408 -5
c-224 -3 -747 -9 -1163 -12 l-756 -5 -7 843 c-5 498 -11 844 -17 846 -12 5
-12 49 1 57 6 3 10 13 10 21 0 10 -12 14 -40 14 -28 0 -40 -4 -40 -14z"/>
<path d="M3270 587 l0 -284 -146 -6 c-80 -3 -148 -8 -151 -11 -3 -3 -3 -12 0
-21 5 -13 31 -15 167 -15 157 0 161 0 168 23 5 12 6 150 3 307 -6 261 -7 285
-23 288 -17 3 -18 -15 -18 -281z"/>
</g>
</svg>
